<svg width="112" height="24" viewBox="0 0 112 24" fill="none" xmlns="http://www.w3.org/2000/svg">
<g clip-path="url(#clip0_26_185)">
<path d="M31.0293 5.66748C27.1966 5.66748 23.1019 8.07062 23.1019 14.8173C23.1019 21.564 27.1966 23.9671 31.0293 23.9671C34.8619 23.9671 38.9878 21.564 38.9878 14.8173C38.9878 8.07062 34.876 5.66748 31.0293 5.66748ZM31.0293 21.6816C27.5663 21.6816 25.6601 19.244 25.6601 14.8173C25.6601 10.3906 27.5679 7.95297 31.0293 7.95297C34.4907 7.95297 36.4312 10.4549 36.4312 14.8173C36.4312 19.1796 34.4626 21.6816 31.0293 21.6816Z" fill="black"/>
<path d="M52.9068 8.36549C51.6214 6.61804 49.6856 5.66745 47.3785 5.66745C45.3398 5.66745 43.4882 6.52549 42.1669 8.08157C40.763 9.7349 40.0221 12.0643 40.0221 14.8173C40.0221 17.5702 40.7646 19.9153 42.1685 21.5639C43.4866 23.1137 45.3382 23.9671 47.3801 23.9671C49.6466 23.9671 51.6214 23.0008 52.9083 21.2878V23.5529H55.3386V0H52.9083V8.36549H52.9068ZM47.7903 21.7129C44.5957 21.7129 42.6099 19.0698 42.6099 14.8173C42.6099 10.5647 44.5941 7.92157 47.7903 7.92157C50.4 7.92157 53.0331 10.0533 53.0331 14.8173C53.0331 19.5812 50.4 21.7129 47.7903 21.7129Z" fill="black"/>
<path d="M66.6026 0H60.271V2.52392H66.6026V0Z" fill="black"/>
<path d="M69.0656 0H66.6025V2.52392H69.0656V0Z" fill="black"/>
<path d="M64.7478 5.66748C59.8358 5.66748 56.535 9.34434 56.535 14.8173C56.535 20.2902 59.7827 23.9671 64.8102 23.9671C68.738 23.9671 71.5802 21.8291 72.4147 18.2463L72.4818 17.9577H69.9516L69.9033 18.1287C69.2653 20.3875 67.4558 21.6832 64.9366 21.6832C61.4799 21.6832 59.1853 19.2894 59.0355 15.564H72.5676L72.5785 15.3396C72.7204 12.3514 71.8641 9.72238 70.17 7.93415C68.7646 6.45179 66.8896 5.66905 64.7463 5.66905L64.7478 5.66748ZM64.7166 7.9216C67.9051 7.9216 69.8471 10.604 69.9548 13.2769H59.1244C59.5799 9.91689 61.6561 7.9216 64.7166 7.9216Z" fill="black"/>
<path d="M76.0617 0H73.6314V23.5514H76.0617V0Z" fill="black"/>
<path d="M80.2407 0H77.8104V2.52392H80.2407V0Z" fill="black"/>
<path d="M80.2407 5.95288H77.8104V23.5513H80.2407V5.95288Z" fill="black"/>
<path d="M93.5699 14.9271C92.3485 14.1569 90.7527 13.7945 89.4986 13.5655L87.0932 13.12C85.0981 12.7467 84.0873 11.8384 84.0873 10.422C84.0873 9.46825 84.9515 7.8557 88.1898 7.8557C90.5577 7.8557 92.2643 9.02746 92.6464 10.9145L92.6839 11.1028H95.2046L95.1641 10.833C94.7039 7.77256 91.9133 5.63452 88.3786 5.63452C84.4648 5.63452 81.6227 7.71452 81.6227 10.582C81.6227 13.051 83.376 14.8063 86.435 15.3977L89.0946 15.9075C91.5077 16.3733 93.116 17.0479 93.116 18.8282C93.116 19.9122 92.1925 21.7443 88.728 21.7443C85.9264 21.7443 84.131 20.3906 83.7987 18.0314L83.7707 17.829H81.2437L81.278 18.0941C81.7537 21.771 84.4804 23.9655 88.5704 23.9655C92.6605 23.9655 95.579 21.7726 95.579 18.5082C95.579 16.971 94.9036 15.7663 93.5699 14.9255V14.9271Z" fill="black"/>
<path d="M109.651 7.93258C108.245 6.45023 106.37 5.66748 104.227 5.66748C99.315 5.66748 96.0143 9.34434 96.0143 14.8173C96.0143 20.2902 99.262 23.9671 104.289 23.9671C108.217 23.9671 111.059 21.8291 111.894 18.2463L111.961 17.9577H109.431L109.383 18.1287C108.745 20.3875 106.935 21.6832 104.416 21.6832C100.959 21.6832 98.6645 19.2894 98.5148 15.564H112.047L112.058 15.3396C112.2 12.3514 111.343 9.72238 109.649 7.93415L109.651 7.93258ZM104.196 7.92003C107.384 7.92003 109.326 10.6024 109.434 13.2753H98.6037C99.0592 9.91532 101.135 7.92003 104.196 7.92003Z" fill="black"/>
<path d="M16.0965 5.67375V5.66748H15.8344H15.783H15.5599V5.67375C13.5164 5.74277 11.9331 6.51768 10.9489 7.93101C9.96457 6.51925 8.38128 5.74277 6.33783 5.67375V5.66748H6.08824H6.03677H5.80279V5.67219C2.05749 5.80081 0 8.22434 0 12.524V23.5514H2.43031V13.0651C2.43031 9.91375 3.04022 7.95454 6.07265 7.9216C9.10975 7.95454 9.72123 9.91375 9.72123 13.0651V23.5514H12.1765V13.0651C12.1765 9.91375 12.7864 7.95454 15.8188 7.9216C18.8559 7.95454 19.4674 9.91375 19.4674 13.0651V23.5514H21.8977V12.524C21.8977 8.22434 19.8402 5.80081 16.0949 5.67375H16.0965Z" fill="black"/>
</g>
<defs>
<clipPath id="clip0_26_185">
<rect width="112.073" height="23.9655" fill="white"/>
</clipPath>
</defs>
</svg>
