<svg width="207" height="54" viewBox="0 0 207 54" fill="none" xmlns="http://www.w3.org/2000/svg">
<path d="M206.5 29C206.5 32.1634 203.897 35.3228 198.81 38.2996C193.759 41.2559 186.415 43.9354 177.298 46.1923C159.07 50.7041 133.862 53.5 106 53.5C78.1379 53.5 52.9301 50.7041 34.7024 46.1923C25.5846 43.9354 18.2414 41.2559 13.1896 38.2996C8.10299 35.3228 5.5 32.1634 5.5 29C5.5 25.8366 8.10299 22.6772 13.1896 19.7004C18.2414 16.7441 25.5846 14.0646 34.7024 11.8077C52.9301 7.29586 78.1379 4.5 106 4.5C133.862 4.5 159.07 7.29586 177.298 11.8077C186.415 14.0646 193.759 16.7441 198.81 19.7004C203.897 22.6772 206.5 25.8366 206.5 29Z" stroke="black"/>
<path d="M80.924 21.144C82.628 21.144 83.852 21.996 84.164 23.472H83.324C83.024 22.464 82.16 21.912 80.84 21.912C79.964 21.912 78.728 22.26 78.728 23.4C78.728 24.276 79.436 24.72 80.408 24.936L81.44 25.164C82.7 25.452 84.368 25.956 84.368 27.612C84.368 29.28 82.844 30.156 81.152 30.156C78.98 30.156 77.78 28.944 77.588 27.384H78.428C78.728 28.764 79.7 29.388 81.116 29.388C82.064 29.388 83.528 29.04 83.528 27.744C83.528 26.676 82.496 26.184 81.272 25.92L80.18 25.68C79.04 25.416 77.9 24.864 77.9 23.436C77.9 21.828 79.52 21.144 80.924 21.144ZM87.9248 30H87.1208V21.3H87.9248V30ZM98.4398 23.916H97.5998C97.2398 22.464 96.0278 21.912 94.8158 21.912C93.0758 21.912 91.7318 23.244 91.7318 25.644C91.7318 27.96 92.9678 29.388 94.7558 29.388C96.0398 29.388 97.6598 28.884 97.6598 26.784V26.46H95.2238V25.716H98.4278V30H97.7198L97.7078 28.776C97.1798 29.604 96.2438 30.156 94.7438 30.156C92.2478 30.156 90.8798 28.272 90.8798 25.644C90.8798 22.98 92.3558 21.144 94.8398 21.144C96.6878 21.144 98.0558 22.104 98.4398 23.916ZM107.381 30L102.617 22.164V30H101.813V21.3H102.977L107.741 29.148V21.3H108.545V30H107.381ZM117.014 21.3V26.628C117.014 28.5 117.698 29.388 119.546 29.388C121.43 29.388 122.102 28.368 122.102 26.484V21.3H122.906V26.388C122.906 28.92 122.018 30.156 119.546 30.156C117.182 30.156 116.21 29.184 116.21 26.484V21.3H117.014ZM128.882 21.3C130.97 21.3 132.446 21.78 132.446 23.868C132.446 25.968 130.97 26.4 128.882 26.4H127.082V30H126.278V21.3H128.882ZM127.082 22.032V25.656H128.99C130.418 25.656 131.606 25.488 131.606 23.868C131.606 22.248 130.418 22.032 128.99 22.032H127.082Z" fill="black"/>
<path d="M201.5 25C201.5 28.1634 198.897 31.3228 193.81 34.2996C188.759 37.2559 181.415 39.9354 172.298 42.1923C154.07 46.7041 128.862 49.5 101 49.5C73.1379 49.5 47.9301 46.7041 29.7024 42.1923C20.5846 39.9354 13.2414 37.2559 8.18962 34.2996C3.10299 31.3228 0.5 28.1634 0.5 25C0.5 21.8366 3.10299 18.6772 8.18962 15.7004C13.2414 12.7441 20.5846 10.0646 29.7024 7.80768C47.9301 3.29586 73.1379 0.5 101 0.5C128.862 0.5 154.07 3.29586 172.298 7.80768C181.415 10.0646 188.759 12.7441 193.81 15.7004C198.897 18.6772 201.5 21.8366 201.5 25Z" stroke="black"/>
</svg>
